<svg id="Layer_1" data-name="Layer 1" xmlns="http://www.w3.org/2000/svg" viewBox="0 0 384.78 519.8"><defs><style>.cls-1{fill:#1e1e1c;stroke:#e10a17;stroke-miterlimit:10;stroke-width:1.68px;}.cls-2{fill:#d2ff00;}</style></defs><path class="cls-1" d="M272.8,140.7" transform="translate(-118.91 -83.9)"/><path class="cls-2" d="M409.4,602.6l93.4-387.7c4.5-17.8-8.8-27.2-24-27.2H404.5a2.88,2.88,0,0,0-2.8,2.2L352.5,394a2.8,2.8,0,0,1-2.8,2.2H249a2.89,2.89,0,0,1-2.8-3.5l49.3-205L320.1,85.9a2.57,2.57,0,0,1,2-2H213.2a3.3,3.3,0,0,1,0,1.4L119.8,473c-4.5,17.8,8.8,27.2,24,27.2l179.7.1a2.89,2.89,0,0,1,2.8,3.5L302.5,602a3,3,0,0,1-1.2,1.7H409.4A2.05,2.05,0,0,1,409.4,602.6Z" transform="translate(-118.91 -83.9)"/></svg>